<svg width="274" height="274" viewBox="0 0 274 274" fill="none" xmlns="http://www.w3.org/2000/svg">
<path d="M271.888 136.793C271.888 211.404 211.404 271.888 136.793 271.888C62.1819 271.888 1.69767 211.404 1.69767 136.793C1.69767 62.1818 62.1819 1.69767 136.793 1.69767C211.404 1.69767 271.888 62.1818 271.888 136.793Z" fill="white" stroke="black" stroke-width="3.39535"/>
<path d="M133.33 50.7932L110.252 105.526H154.978L133.33 50.7932ZM106.985 112.879L98.4072 133.913C95.9566 138.951 94.7312 142.967 94.7312 145.962C94.7312 148.005 95.7523 149.774 97.7946 151.272C99.8369 152.906 103.922 153.996 110.048 154.54V157.808H68.5903V154.54C73.9002 153.587 77.5081 152.226 79.4142 150.455C82.5457 147.597 86.2218 140.925 90.4425 130.442L137.211 18.9344H140.477L185.408 132.075C188.675 140.788 191.942 146.712 195.21 149.843C198.614 152.565 202.834 154.132 207.872 154.54V157.808H156.203V154.54C161.24 154.267 164.712 153.315 166.618 151.681C168.524 150.184 169.478 148.345 169.478 146.167C169.478 143.171 168.253 138.406 165.802 131.871L158.245 112.879H106.985Z" fill="url(#paint0_linear_101_2)"/>
<path d="M137.403 39.4964L162.682 124.269L98.1387 133.903L137.403 39.4964Z" fill="#F5F5F5"/>
<path d="M93.5009 173.127L83.0508 197.912H103.304L93.5009 173.127ZM81.571 201.242L77.6869 210.767C76.5771 213.048 76.0222 214.866 76.0222 216.223C76.0222 217.148 76.4846 217.949 77.4095 218.627C78.3343 219.367 80.1839 219.86 82.9583 220.108V221.587H64.1849V220.108C66.5894 219.675 68.2232 219.059 69.0863 218.257C70.5043 216.963 72.169 213.941 74.0802 209.194L95.2581 158.701H96.7377L117.083 209.934C118.563 213.88 120.042 216.562 121.523 217.98C123.064 219.213 124.974 219.922 127.256 220.108V221.587H103.859V220.108C106.14 219.984 107.712 219.552 108.576 218.813C109.438 218.134 109.87 217.302 109.87 216.315C109.87 214.959 109.315 212.801 108.205 209.842L104.783 201.242H81.571ZM169.429 179.786H168.042C167.488 175.717 166.563 172.51 165.268 170.168C163.973 167.701 162.031 165.791 159.442 164.435C157.16 163.077 154.54 162.4 151.581 162.4C148.499 162.4 146.033 163.356 144.182 165.266C142.21 167.24 141.224 169.428 141.224 171.833C141.224 173.682 141.84 175.378 143.073 176.919C144.861 179.139 149.084 182.16 155.743 185.982C161.292 189.003 165.083 191.346 167.118 193.011C169.398 194.798 171.033 196.741 172.019 198.837C173.191 201.18 173.776 203.554 173.776 205.958C173.776 210.521 172.05 214.528 168.598 217.98C165.33 221.371 160.829 223.066 155.095 223.066C154.171 223.066 152.567 222.912 150.286 222.604C149.608 222.543 147.728 221.956 144.646 220.847C142.055 219.86 140.237 219.367 139.189 219.367C138.819 219.367 138.233 219.614 137.431 220.108C137.123 220.477 136.815 221.464 136.507 223.066H135.12V201.981H136.507C137.308 206.543 138.325 209.811 139.558 211.784C140.915 213.941 142.857 215.73 145.385 217.148C148.097 218.627 150.934 219.367 153.893 219.367C157.53 219.367 160.367 218.35 162.402 216.315C164.497 214.404 165.545 212.031 165.545 209.194C165.545 207.838 165.176 206.297 164.435 204.571C163.635 203.029 162.463 201.58 160.921 200.224C158.455 198.62 155.342 196.741 151.581 194.583C146.587 191.624 143.011 189.312 140.853 187.646C138.758 185.921 137.154 183.978 136.044 181.82C134.996 179.786 134.472 177.474 134.472 174.884C134.472 170.446 136.075 166.622 139.281 163.417C142.611 160.273 146.71 158.701 151.581 158.701C154.848 158.701 158.178 159.532 161.569 161.198C162.987 162 164.158 162.4 165.083 162.4C165.638 162.4 166.255 162.154 166.932 161.66C167.488 161.105 167.857 160.119 168.042 158.701H169.429V179.786ZM205.704 221.587H180.273V220.108H182.4C184.989 220.108 186.777 219.367 187.763 217.888C188.565 216.901 188.966 214.558 188.966 210.859V170.908C188.966 167.702 188.75 165.637 188.319 164.712C188.134 164.095 187.517 163.448 186.469 162.769C185.297 162.03 183.941 161.66 182.4 161.66H180.273V160.18H205.704V161.66H203.578C201.235 161.66 199.447 162.4 198.214 163.879C197.412 165.051 197.012 167.394 197.012 170.908V210.859C197.012 213.88 197.258 215.945 197.752 217.055C197.813 217.734 198.399 218.381 199.508 218.998C200.926 219.737 202.282 220.108 203.578 220.108H205.704V221.587Z" fill="#40251D"/>
<path d="M256.609 186.28H18.9346L29.1207 205.951L239.632 208.781L256.609 186.28Z" fill="white"/>
<path d="M68.2565 195.035H67.9674C67.8519 194.188 67.6592 193.521 67.3895 193.032C67.1197 192.518 66.7151 192.12 66.1757 191.837C65.7004 191.555 65.1545 191.414 64.538 191.414C63.8959 191.414 63.382 191.612 62.9967 192.01C62.5857 192.422 62.3802 192.878 62.3802 193.379C62.3802 193.765 62.5086 194.117 62.7655 194.439C63.138 194.901 64.0178 195.53 65.405 196.327C66.561 196.956 67.3509 197.444 67.7748 197.791C68.2501 198.163 68.5904 198.568 68.796 199.005C69.04 199.493 69.162 199.987 69.162 200.489C69.162 201.439 68.8024 202.274 68.0831 202.992C67.4024 203.7 66.4647 204.052 65.2702 204.052C65.0776 204.052 64.7436 204.02 64.2683 203.956C64.1271 203.944 63.7353 203.822 63.0931 203.59C62.5536 203.385 62.1747 203.282 61.9563 203.282C61.8792 203.282 61.7572 203.333 61.5902 203.436C61.526 203.514 61.4618 203.719 61.3976 204.052H61.1086V199.66H61.3976C61.5645 200.611 61.7765 201.291 62.0333 201.702C62.316 202.152 62.7206 202.524 63.2472 202.819C63.8124 203.128 64.4032 203.282 65.0197 203.282C65.7775 203.282 66.3684 203.07 66.7923 202.646C67.2289 202.248 67.4473 201.754 67.4473 201.163C67.4473 200.88 67.3702 200.559 67.2161 200.199C67.0491 199.878 66.805 199.576 66.4839 199.293C65.9702 198.96 65.3215 198.568 64.538 198.119C63.4977 197.501 62.7526 197.02 62.3031 196.673C61.8663 196.314 61.5325 195.909 61.3013 195.46C61.0829 195.035 60.9737 194.554 60.9737 194.015C60.9737 193.09 61.3077 192.293 61.9756 191.626C62.6692 190.97 63.5233 190.643 64.538 190.643C65.2188 190.643 65.9124 190.816 66.6189 191.163C66.9143 191.331 67.1583 191.414 67.3509 191.414C67.4666 191.414 67.595 191.363 67.7364 191.26C67.8519 191.144 67.929 190.938 67.9674 190.643H68.2565V195.035ZM79.7056 196.885V193.186C79.7056 192.532 79.6672 192.101 79.5901 191.895C79.5515 191.715 79.4167 191.58 79.1855 191.49C78.9799 191.336 78.6974 191.26 78.3378 191.26H77.9139V190.951H83.193V191.26H82.7498C82.5186 191.26 82.2425 191.331 81.9213 191.471C81.6901 191.561 81.5552 191.715 81.5167 191.934C81.4525 192.127 81.4204 192.544 81.4204 193.186V201.51C81.4204 202.177 81.4525 202.608 81.5167 202.801C81.5552 202.929 81.6901 203.063 81.9213 203.205C82.2167 203.359 82.4928 203.436 82.7498 203.436H83.193V203.744H77.9139V203.436H78.3378C78.8772 203.436 79.2497 203.282 79.4552 202.974C79.6222 202.743 79.7056 202.254 79.7056 201.51V197.579H73.8679V201.51C73.8679 202.139 73.9064 202.569 73.9834 202.801C74.0605 202.967 74.189 203.102 74.3689 203.205C74.6643 203.359 74.9468 203.436 75.2166 203.436H75.679V203.744H70.3614V203.436H70.8238C71.3632 203.436 71.7357 203.282 71.9413 202.974C72.0825 202.755 72.1532 202.267 72.1532 201.51V193.186C72.1532 192.518 72.1275 192.088 72.0761 191.895C71.9862 191.715 71.8513 191.58 71.6715 191.49C71.389 191.336 71.1063 191.26 70.8238 191.26H70.3614V190.951H75.679V191.26H75.2166C74.9981 191.26 74.7156 191.331 74.3689 191.471C74.189 191.575 74.0605 191.729 73.9834 191.934C73.9064 192.166 73.8679 192.583 73.8679 193.186V196.885H79.7056ZM89.8423 193.648L87.6651 198.812H91.8845L89.8423 193.648ZM87.3569 199.506L86.5478 201.49C86.3166 201.966 86.2009 202.345 86.2009 202.627C86.2009 202.819 86.2973 202.987 86.4899 203.128C86.6826 203.282 87.0679 203.385 87.646 203.436V203.744H83.7348V203.436C84.2357 203.346 84.5761 203.218 84.756 203.051C85.0514 202.781 85.3981 202.152 85.7963 201.163L90.2084 190.643H90.5167L94.7552 201.317C95.0636 202.139 95.3719 202.697 95.6801 202.992C96.0011 203.25 96.3993 203.397 96.8746 203.436V203.744H92.0002V203.436C92.4754 203.41 92.803 203.321 92.9827 203.166C93.1626 203.025 93.2525 202.852 93.2525 202.646C93.2525 202.364 93.1369 201.915 92.9057 201.297L92.1928 199.506H87.3569ZM101.557 197.117C102.7 197.117 103.592 196.854 104.235 196.327C104.839 195.813 105.14 195.145 105.14 194.323C105.14 193.501 104.903 192.852 104.427 192.377C103.927 191.888 103.278 191.645 102.482 191.645C102.161 191.645 101.679 191.722 101.037 191.876V197.117H101.557ZM106.527 203.744L102.308 197.733C102.27 197.746 102.019 197.752 101.557 197.752C101.429 197.752 101.351 197.746 101.326 197.733H101.037V201.51C101.037 202.293 101.133 202.794 101.326 203.012C101.531 203.295 101.878 203.436 102.366 203.436H102.848V203.744H97.5303V203.436H98.012C98.5257 203.436 98.9046 203.256 99.1487 202.897C99.2642 202.716 99.3221 202.254 99.3221 201.51V193.186C99.3221 192.364 99.2386 191.863 99.0716 191.683C98.8661 191.401 98.5129 191.26 98.012 191.26H97.5303V190.951H102.077C103.4 190.951 104.37 191.048 104.986 191.241C105.628 191.458 106.161 191.825 106.585 192.339C107.022 192.852 107.24 193.482 107.24 194.227C107.24 195.01 106.99 195.684 106.49 196.25C106.001 196.815 105.218 197.225 104.139 197.483L106.701 201.182C107.254 201.991 107.76 202.562 108.223 202.897C108.595 203.179 109.142 203.359 109.861 203.436V203.744H106.527ZM113.514 196.732H116.192C116.834 196.732 117.283 196.622 117.54 196.404C117.862 196.109 118.028 195.601 118.041 194.881H118.368V199.274H118.041C117.989 198.709 117.913 198.324 117.81 198.119C117.694 197.926 117.521 197.752 117.29 197.598C117.046 197.483 116.68 197.425 116.192 197.425H113.514V201.625C113.514 202.191 113.526 202.53 113.552 202.646C113.629 202.787 113.719 202.884 113.822 202.935C113.937 203.012 114.168 203.051 114.515 203.051H116.615C117.22 203.051 117.726 202.999 118.138 202.897C118.419 202.806 118.734 202.608 119.081 202.299C119.403 201.966 119.781 201.368 120.218 200.507H120.604L119.525 203.744H110.007V203.436H110.411C110.681 203.436 110.97 203.365 111.278 203.224C111.458 203.134 111.6 202.98 111.702 202.762C111.766 202.53 111.798 202.113 111.798 201.51V193.186C111.798 192.364 111.709 191.851 111.529 191.645C111.311 191.388 110.938 191.26 110.411 191.26H110.007V190.951H119.467L119.621 193.726H119.254C119.139 193.084 118.992 192.621 118.812 192.339C118.683 192.095 118.458 191.908 118.138 191.78C117.958 191.69 117.533 191.645 116.866 191.645H113.514V196.732ZM137.188 195.035H136.879C136.52 193.726 135.993 192.762 135.3 192.146C134.671 191.555 133.861 191.26 132.872 191.26C132.076 191.26 131.351 191.471 130.695 191.895C130.053 192.332 129.546 193.026 129.173 193.976C128.788 194.913 128.595 196.095 128.595 197.521C128.595 198.665 128.768 199.673 129.115 200.546C129.501 201.407 130.04 202.062 130.734 202.511C131.466 202.974 132.281 203.205 133.18 203.205C134.015 203.205 134.716 203.026 135.281 202.665C135.897 202.28 136.559 201.586 137.265 200.585L137.555 200.739C136.912 201.933 136.193 202.768 135.397 203.243C134.613 203.783 133.649 204.052 132.506 204.052C130.477 204.052 128.89 203.263 127.747 201.683C126.925 200.514 126.514 199.134 126.514 197.54C126.514 196.282 126.784 195.106 127.323 194.015C127.889 192.936 128.641 192.107 129.578 191.529C130.477 190.938 131.517 190.643 132.699 190.643C133.611 190.643 134.478 190.862 135.3 191.298C135.506 191.426 135.685 191.49 135.839 191.49C136.019 191.49 136.154 191.433 136.244 191.317C136.437 191.099 136.552 190.874 136.591 190.643H136.879L137.188 195.035ZM144.812 191.26C143.707 191.26 142.821 191.69 142.154 192.55C141.305 193.565 140.882 195.132 140.882 197.252C140.882 199.371 141.324 201.002 142.211 202.145C142.828 203.006 143.7 203.436 144.831 203.436C145.975 203.436 146.95 202.96 147.76 202.01C148.505 201.034 148.878 199.537 148.878 197.521C148.878 195.311 148.46 193.655 147.625 192.55C146.932 191.69 145.994 191.26 144.812 191.26ZM144.986 190.643C146.603 190.643 148.004 191.272 149.186 192.532C150.38 193.816 150.977 195.396 150.977 197.271C150.977 199.198 150.38 200.816 149.186 202.126C148.029 203.41 146.591 204.052 144.869 204.052C143.187 204.052 141.742 203.424 140.535 202.164C139.378 200.893 138.8 199.274 138.8 197.31C138.8 195.28 139.469 193.616 140.804 192.32C141.986 191.202 143.38 190.643 144.986 190.643ZM154.24 192.974V201.51C154.24 202.306 154.33 202.813 154.51 203.031C154.742 203.302 155.101 203.436 155.589 203.436H156.032V203.744H151.639V203.436H152.083C152.583 203.436 152.962 203.27 153.219 202.935C153.348 202.755 153.412 202.28 153.412 201.51V193.186C153.412 192.557 153.348 192.133 153.219 191.915C153.142 191.734 152.987 191.58 152.757 191.453C152.577 191.324 152.205 191.26 151.639 191.26V190.951H155.223L159.712 200.912L164.181 190.951H167.689V191.26H167.245C166.706 191.26 166.32 191.426 166.09 191.761C165.948 191.979 165.877 192.454 165.877 193.186V201.51C165.877 202.306 165.968 202.813 166.147 203.031C166.403 203.302 166.769 203.436 167.245 203.436H167.689V203.744H162.371V203.436H162.833C163.334 203.436 163.713 203.27 163.97 202.935C164.098 202.73 164.162 202.254 164.162 201.51V192.974L159.327 203.744H159.095L154.24 192.974ZM172.257 197.271C172.335 197.284 172.476 197.303 172.681 197.328L172.796 197.347C172.86 197.347 172.899 197.354 172.912 197.367C173.169 197.406 173.38 197.425 173.548 197.425C174.19 197.425 174.73 197.168 175.167 196.654C175.616 196.141 175.841 195.486 175.841 194.689C175.841 194.175 175.731 193.661 175.513 193.148C175.321 192.672 175.013 192.313 174.588 192.069C174.229 191.837 173.785 191.722 173.258 191.722C172.95 191.722 172.552 191.78 172.064 191.895V197.232L172.257 197.271ZM172.064 201.51C172.064 202.332 172.147 202.833 172.315 203.012C172.547 203.295 172.893 203.436 173.355 203.436H173.856V203.744H168.538V203.436H169.02C169.559 203.436 169.932 203.256 170.138 202.897C170.267 202.73 170.33 202.267 170.33 201.51V193.186C170.33 192.352 170.253 191.851 170.099 191.683C169.855 191.401 169.495 191.26 169.02 191.26H168.538V190.951H173.067C174.21 190.951 175.077 191.067 175.667 191.298C176.31 191.542 176.849 191.941 177.286 192.493C177.723 193.084 177.941 193.751 177.941 194.496C177.941 195.537 177.601 196.39 176.92 197.059C176.29 197.714 175.359 198.041 174.126 198.041C173.702 198.041 173.387 198.016 173.182 197.965C173.092 197.965 172.938 197.938 172.72 197.887H172.701C172.43 197.823 172.218 197.784 172.064 197.772V201.51ZM184.689 193.648L182.512 198.812H186.731L184.689 193.648ZM182.203 199.506L181.394 201.49C181.163 201.966 181.048 202.345 181.048 202.627C181.048 202.819 181.144 202.987 181.336 203.128C181.529 203.282 181.915 203.385 182.493 203.436V203.744H178.582V203.436C179.082 203.346 179.422 203.218 179.603 203.051C179.898 202.781 180.245 202.152 180.643 201.163L185.055 190.643H185.363L189.601 201.317C189.91 202.139 190.218 202.697 190.526 202.992C190.848 203.25 191.246 203.397 191.722 203.436V203.744H186.847V203.436C187.322 203.41 187.65 203.321 187.829 203.166C188.009 203.025 188.099 202.852 188.099 202.646C188.099 202.364 187.984 201.915 187.752 201.297L187.039 199.506H182.203ZM195.016 190.951L202.838 200.662V193.186C202.838 192.415 202.748 191.908 202.569 191.664C202.364 191.395 201.998 191.26 201.471 191.26H201.028V190.951H205.44V191.26H204.996C204.483 191.26 204.097 191.426 203.841 191.761C203.712 191.992 203.648 192.467 203.648 193.186V203.956H203.321L195.016 193.668V201.51C195.016 202.318 195.1 202.826 195.267 203.031C195.498 203.302 195.858 203.436 196.346 203.436H196.788V203.744H192.376V203.436H192.84C193.365 203.436 193.745 203.27 193.976 202.935C194.104 202.73 194.168 202.254 194.168 201.51V192.647C193.848 192.249 193.578 191.966 193.36 191.799C193.103 191.632 192.833 191.504 192.55 191.414C192.435 191.363 192.165 191.336 191.741 191.336V190.951H195.016ZM218.948 190.951V191.26H218.717C218.614 191.26 218.383 191.331 218.023 191.471C217.677 191.639 217.394 191.856 217.176 192.127C216.906 192.447 216.61 192.904 216.29 193.494L213.245 198.369V201.51C213.245 202.318 213.329 202.826 213.495 203.031C213.727 203.302 214.1 203.436 214.613 203.436H215.018V203.744H209.738V203.436H210.182C210.721 203.436 211.107 203.27 211.337 202.935C211.466 202.73 211.53 202.254 211.53 201.51V198.639L208.14 193.109C207.741 192.467 207.471 192.069 207.33 191.915C207.098 191.697 206.797 191.51 206.424 191.356C206.232 191.292 206.058 191.26 205.904 191.26V190.951H211.183V191.26H210.894C210.677 191.26 210.413 191.331 210.104 191.471C209.86 191.612 209.738 191.825 209.738 192.107C209.738 192.339 209.925 192.756 210.297 193.36L212.84 197.483L215.268 193.533C215.641 192.955 215.827 192.505 215.827 192.184C215.827 191.979 215.775 191.819 215.673 191.702C215.57 191.536 215.455 191.426 215.326 191.375C215.159 191.298 214.908 191.26 214.574 191.26V190.951H218.948Z" fill="#6AB134"/>
<path d="M120.067 138.12C120.198 137.91 120.355 136.703 120.408 135.469C120.539 132.609 120.146 131.297 118.099 127.754C117.259 126.311 116.393 124.631 116.209 124.028C116.026 123.398 115.789 122.899 115.658 122.899C115.265 122.899 113.926 125.34 113.664 126.521C113.086 129.302 114.477 132.504 117.574 135.496C118.702 136.598 119.647 137.7 119.726 137.988C119.804 138.435 119.857 138.461 120.067 138.12Z" fill="#6AB134"/>
<path d="M135.025 135.653C135.287 133.921 135.025 132.399 134.132 130.299C133.713 129.302 133.293 128.121 133.188 127.649C132.978 126.625 132.61 126.704 131.954 127.911C130.983 129.617 131.771 132.609 133.922 135.6L134.841 136.886L135.025 135.653Z" fill="#6AB134"/>
<path d="M160.479 135.207C160.19 134.183 159.193 132.793 158.091 131.874C157.173 131.087 153.604 128.673 153.368 128.673C153.315 128.673 153.263 129.145 153.263 129.722C153.263 132.11 155.414 134.262 158.59 135.076C159.403 135.286 160.217 135.548 160.374 135.653C160.584 135.758 160.61 135.627 160.479 135.207Z" fill="#6AB134"/>
<path d="M147.227 134.787C147.227 133.737 146.676 132.53 145.548 131.008L144.341 129.407L144.078 130.142C143.553 131.533 144.472 133.317 146.466 134.734C147.175 135.233 147.227 135.233 147.227 134.787Z" fill="#6AB134"/>
<path d="M229.968 133.029C231.175 132.582 232.671 131.585 233.694 130.483L234.455 129.696L233.327 130.116C231.674 130.693 229.495 130.614 228.131 129.958C227.449 129.643 226.399 128.725 225.559 127.701C223.827 125.681 223.04 124.999 221.57 124.238C220.363 123.634 219.655 123.529 219.655 123.975C219.655 124.605 221.492 128.121 222.594 129.591C224.195 131.769 226.688 133.37 228.446 133.37C228.734 133.37 229.417 133.212 229.968 133.029Z" fill="#6AB134"/>
<path d="M136.572 132.346C137.307 130.483 137.097 129.617 135.444 127.806C135.077 127.386 134.552 126.94 134.263 126.783C133.817 126.547 133.791 126.599 133.948 127.491C134.053 128.043 134.421 129.118 134.762 129.906C135.103 130.667 135.47 131.716 135.575 132.215C135.811 133.527 136.074 133.553 136.572 132.346Z" fill="#6AB134"/>
<path d="M122.113 130.929C122.979 128.252 123.005 126.94 122.218 125.759C121.483 124.657 119.226 123.057 117.678 122.532L116.497 122.138L116.655 122.978C116.838 123.765 117.39 124.92 119.751 129.197C120.25 130.142 120.775 131.349 120.853 131.9C120.958 132.425 121.116 132.924 121.221 133.002C121.326 133.055 121.719 132.136 122.113 130.929Z" fill="#6AB134"/>
<path d="M212.307 132.162C212.307 132.058 212.044 131.192 211.756 130.247C211.467 129.302 210.942 127.334 210.601 125.864C209.919 122.794 209.394 121.823 207.557 120.17C206.114 118.858 204.408 118.176 202.597 118.176C201.023 118.176 200.813 118.412 201.889 118.963C202.991 119.54 204.329 121.535 204.854 123.398C205.379 125.235 206.192 126.52 208.213 128.646C210.024 130.535 212.307 132.504 212.307 132.162Z" fill="#6AB134"/>
<path d="M209 130.483C206.297 127.911 204.88 125.917 204.171 123.765C203.463 121.508 202.754 120.354 201.705 119.724C200.471 118.963 199.868 119.068 199.369 120.144C198.766 121.377 198.818 122.296 199.5 124.133C200.498 126.835 203.699 129.486 208.239 131.375C211.099 132.556 211.152 132.504 209 130.483Z" fill="#6AB134"/>
<path d="M147.752 131.323C147.752 130.509 147.594 130.168 147.069 129.748C146.308 129.171 145.416 128.804 145.206 129.04C145.049 129.197 147.253 132.32 147.542 132.32C147.673 132.346 147.752 131.874 147.752 131.323Z" fill="#6AB134"/>
<path d="M159.666 131.375C159.115 128.935 158.983 128.646 158.17 128.147C157.566 127.78 156.858 127.623 155.677 127.623C153.578 127.623 153.63 127.911 155.913 129.381C156.832 129.984 158.091 130.85 158.721 131.297L159.849 132.11L159.666 131.375Z" fill="#6AB134"/>
<path d="M39.5303 131.559C42.2857 130.929 44.6737 127.885 45.9333 123.398L46.4581 121.508L44.5425 123.345C42.3382 125.444 41.5509 126.048 39.4516 127.071C37.2997 128.147 35.0692 128.541 33.3372 128.174C32.5762 128.016 31.8939 127.937 31.8414 127.99C31.6315 128.2 34.5181 130.325 35.8302 130.903C37.4309 131.638 38.4544 131.795 39.5303 131.559Z" fill="#6AB134"/>
<path d="M56.0363 129.748C61.2584 127.544 63.9088 125.34 65.116 122.164C65.7195 120.485 65.667 119.173 64.9585 118.071C64.5649 117.493 64.3549 117.388 63.8039 117.52C62.623 117.782 61.0222 119.776 60.3662 121.849C59.5789 124.29 58.8179 125.392 55.8526 128.357C54.5405 129.67 53.4908 130.772 53.5433 130.745C53.622 130.745 54.7242 130.299 56.0363 129.748Z" fill="#6AB134"/>
<path d="M55.0132 128.121C58.0572 125.156 58.8707 124.028 59.6842 121.587C60.4977 119.225 61.285 118.044 62.5708 117.257L63.6205 116.627L62.8857 116.444C61.6523 116.155 59.3168 116.785 57.7686 117.861C55.643 119.304 54.6458 120.878 54.016 123.634C53.7536 124.893 53.2287 126.914 52.8613 128.121C52.494 129.302 52.2578 130.352 52.3365 130.431C52.389 130.509 53.5961 129.46 55.0132 128.121Z" fill="#6AB134"/>
<path d="M232.119 129.748C233.169 129.486 234.953 128.541 235.347 128.069C235.609 127.754 235.557 127.728 235.058 127.806C233.562 128.095 232.25 127.386 229.652 124.894C227.002 122.374 224.903 121.062 223.459 121.062C222.961 121.062 222.226 121.377 221.596 121.823C219.917 123.083 219.129 122.978 215.849 121.141C208.318 116.968 203.988 114.895 199.501 113.295C198.136 112.822 196.981 112.376 196.903 112.324C196.693 112.114 198.136 109.07 198.687 108.571C199.343 107.968 199.317 107.6 198.661 107.994C198.188 108.282 196.903 110.618 196.483 111.904C196.299 112.429 194.908 112.376 188.846 111.589C186.721 111.326 184.333 111.09 183.545 111.09C182.784 111.09 182.102 110.985 181.997 110.854C181.918 110.723 182.155 110.172 182.522 109.621C183.414 108.309 184.307 105.055 183.755 105.055C183.624 105.055 183.414 105.553 183.336 106.183C183.099 107.705 182.05 109.909 181.289 110.408C180.948 110.618 179.504 110.907 177.799 111.064C173.836 111.431 170.792 112.114 167.617 113.347C167.197 113.505 167.171 113.426 167.328 112.796C167.564 111.878 167.092 112.114 166.672 113.111C166.436 113.688 165.57 114.266 162.368 115.866C157.724 118.202 157.146 118.438 156.175 118.438C154.837 118.438 154.47 117.913 154.653 116.286C154.889 114.397 154.47 112.271 153.656 111.038C152.738 109.647 150.822 108.65 146.964 107.574C145.154 107.075 143.422 106.577 143.133 106.472C142.871 106.367 143.422 107.128 144.419 108.177C145.39 109.201 146.991 111.169 147.988 112.507C150.113 115.368 151.399 116.522 152.974 116.942C153.735 117.152 154.181 117.441 154.338 117.834C154.443 118.149 154.863 118.569 155.257 118.779C155.939 119.12 155.913 119.147 153.394 120.117C152.003 120.642 149.772 121.377 148.46 121.744C145.285 122.637 145.127 122.689 145.705 122.82C146.833 123.083 153.472 120.774 158.773 118.254C161.161 117.126 161.975 116.864 162.657 116.968C163.392 117.073 163.497 117.047 163.234 116.732C162.788 116.207 163.077 115.919 164.179 115.735C164.73 115.63 165.465 115.289 165.832 114.922C167.171 113.662 172.97 111.878 175.778 111.878C177.326 111.878 180.37 112.665 180.921 113.216C181.262 113.505 181.604 113.531 181.604 113.216C181.604 113.085 181.105 112.77 180.475 112.481C177.851 111.3 177.825 111.326 181.735 111.458C183.755 111.536 187.167 111.825 189.319 112.14C191.471 112.429 193.754 112.665 194.436 112.665C195.092 112.665 196.273 112.849 197.034 113.032C199.632 113.741 200.918 114.869 201.101 116.654C201.233 118.044 201.547 118.228 201.547 116.89C201.547 116.286 201.364 115.446 201.154 115.027L200.76 114.239L202.125 114.79C204.303 115.604 212.097 119.54 215.587 121.561C217.424 122.61 218.815 123.24 218.893 123.083C219.182 122.637 221.334 123.135 222.593 123.923C223.223 124.316 224.562 125.576 225.585 126.678C228.025 129.433 229.941 130.326 232.119 129.748Z" fill="#6AB134"/>
<path d="M144.918 128.279C145.023 128.174 145.023 127.938 144.944 127.728C144.839 127.413 145.6 127.36 149.563 127.36C152.187 127.36 154.312 127.282 154.312 127.177C154.312 127.045 152.344 126.967 149.904 126.94C147.489 126.94 144.708 126.835 143.711 126.73L141.926 126.521L142.845 125.576C143.343 125.025 143.973 124.211 144.209 123.713L144.655 122.794L143.606 123.66C143.002 124.106 141.979 124.684 141.323 124.894C140.667 125.13 140.011 125.55 139.853 125.838C139.617 126.258 139.407 126.311 138.488 126.179C136.153 125.812 130.983 124.736 130.275 124.447L129.514 124.159L130.354 123.818C131.01 123.529 133.188 121.115 132.978 120.879C132.951 120.852 132.269 121.01 131.482 121.22C130.695 121.403 129.383 121.692 128.595 121.849C126.627 122.217 126.286 122.453 126.785 123.057C127.126 123.476 127.1 123.503 126.627 123.319C126.339 123.188 125.892 123.057 125.656 122.978C125.42 122.899 125.289 122.689 125.368 122.506C125.446 122.269 125.131 122.033 124.344 121.849C119.699 120.616 113.926 118.438 109.098 116.103C105.975 114.58 101.33 112.822 98.3647 112.009C96.8427 111.589 96.3441 111.038 96.8689 110.382C97.315 109.857 96.9739 109.673 96.4753 110.198C96.2129 110.434 96.0817 110.802 96.1604 110.985C96.3441 111.431 96.764 111.484 92.0667 110.565C87.7368 109.699 86.6608 109.227 83.9054 106.97C82.5146 105.816 81.7799 105.475 82.4359 106.288C82.8033 106.708 85.6112 108.86 86.4771 109.385C86.7658 109.568 84.6402 109.647 79.733 109.673C75.6918 109.673 72.0179 109.804 71.2831 109.962C70.181 110.224 69.8923 110.172 69.1313 109.726C68.0291 109.096 66.4546 108.702 66.2447 109.017C66.166 109.148 66.3234 109.253 66.5858 109.253C66.8482 109.253 67.5305 109.49 68.1079 109.752C69.2887 110.303 69.2887 110.303 66.4809 110.959C64.8014 111.353 63.1744 112.114 63.9354 112.14C64.1191 112.14 63.9616 112.665 63.6205 113.373C62.9907 114.607 62.7545 116.26 63.2531 115.945C63.3843 115.866 63.5155 115.499 63.5155 115.132C63.5155 114.239 64.434 112.481 65.1688 112.035C65.956 111.536 68.2916 110.959 71.7817 110.408C75.823 109.778 84.7452 109.778 86.136 110.382C87.2644 110.854 87.4481 111.589 86.6871 112.639C86.3722 113.111 86.3459 113.242 86.6346 113.137C87.2119 112.953 87.6843 111.825 87.5006 111.038C87.4219 110.618 87.4743 110.303 87.6055 110.303C88.3666 110.303 94.2972 111.431 96.5278 111.983C100.805 113.085 102.957 113.898 103.587 114.712C104.085 115.289 104.19 115.341 104.19 114.948C104.19 114.318 104.532 114.423 108.835 116.496C110.725 117.415 112.903 118.412 113.637 118.7C115.422 119.409 116.235 119.96 116.839 120.931L117.364 121.718L117.206 120.879L117.075 120.065L119.227 120.774C120.408 121.193 121.982 121.823 122.717 122.191C124.738 123.214 129.75 124.867 133.109 125.628C134.736 125.996 136.494 126.416 136.993 126.547C137.491 126.678 139.118 126.862 140.614 126.967C143.606 127.15 144.524 127.386 144.655 128.016C144.682 128.252 144.813 128.384 144.918 128.279Z" fill="#6AB134"/>
<path d="M192.363 128.069C192.389 127.465 191.156 124.474 190.421 123.319C189.293 121.535 187.718 120.196 184.779 118.464C183.467 117.677 181.892 116.575 181.289 116.024C180.685 115.473 180.161 115.079 180.082 115.132C179.714 115.525 179.741 118.517 180.161 119.882C181 122.821 184.569 125.471 189.161 126.521C190.71 126.888 191.445 127.203 191.838 127.649C192.101 127.99 192.337 128.174 192.363 128.069Z" fill="#6AB134"/>
<path d="M36.8272 127.334C37.9818 127.072 39.5826 126.285 41.2096 125.182C42.6791 124.185 46.1955 120.826 46.1693 120.433C46.1693 120.039 43.3089 118.701 42.4954 118.701C41.0521 118.701 38.5067 120.879 36.5123 123.87C35.3314 125.602 34.2292 126.678 33.3108 126.967C32.8647 127.124 32.8122 127.203 33.1008 127.387C33.547 127.675 35.5151 127.649 36.8272 127.334Z" fill="#6AB134"/>
<path d="M99.1517 126.127C100.805 124.474 101.487 122.952 101.96 120.039C102.196 118.701 102.537 117.205 102.747 116.706C103.088 115.893 103.062 115.814 102.668 115.814C101.907 115.84 100.149 116.759 99.4141 117.546C98.0233 119.015 97.3148 122.427 97.8659 124.972C98.0758 125.917 98.0758 126.494 97.8921 126.862C97.446 127.675 97.8396 127.439 99.1517 126.127Z" fill="#6AB134"/>
<path d="M75.1932 126.862C75.4818 126.599 76.584 126.179 77.6337 125.943C81.6749 125.077 85.1913 122.637 86.346 119.96C86.9233 118.569 87.1332 116.26 86.7658 115.079C86.5821 114.502 86.5297 114.528 85.3488 115.578C84.6665 116.181 83.1182 117.257 81.8849 117.966C78.8933 119.724 77.6599 120.773 76.5053 122.505C75.5606 123.949 74.4322 126.652 74.5896 127.124C74.6421 127.255 74.9045 127.15 75.1932 126.862Z" fill="#6AB134"/>
<path d="M170.32 125.209C170.32 124.999 169.926 124.211 169.454 123.424C168.772 122.243 168.116 121.666 165.99 120.223C164.52 119.252 163.261 118.569 163.13 118.701C162.998 118.832 162.998 119.462 163.077 120.144C163.418 122.243 165.911 124.395 168.64 124.867C169.192 124.972 169.821 125.182 169.979 125.34C170.215 125.523 170.32 125.471 170.32 125.209Z" fill="#6AB134"/>
<path d="M141.165 124.185C142.976 123.267 144.603 122.007 144.314 121.745C144.262 121.692 143.501 121.797 142.661 121.981C140.982 122.375 139.801 123.267 139.381 124.5C139.25 124.92 139.145 125.235 139.171 125.235C139.197 125.209 140.089 124.736 141.165 124.185Z" fill="#6AB134"/>
<path d="M103.036 123.713C105.056 122.453 105.503 121.797 105.503 120.275C105.476 119.016 104.532 116.313 104.007 116.155C103.639 116.024 102.983 118.018 102.616 120.511C102.458 121.587 102.117 122.978 101.829 123.608C101.566 124.238 101.356 124.736 101.383 124.736C101.409 124.736 102.17 124.264 103.036 123.713Z" fill="#6AB134"/>
<path d="M136.73 123.66C133.371 123.372 131.797 123.372 132.269 123.686C132.479 123.818 134.08 123.923 135.812 123.896L138.961 123.87L136.73 123.66Z" fill="#6AB134"/>
<path d="M190.946 122.165C190.867 121.928 190.631 120.721 190.421 119.488C190.211 118.255 189.922 116.942 189.791 116.575C189.161 114.974 186.537 113.715 183.808 113.715C182.076 113.715 180.816 113.977 180.816 114.318C180.816 114.843 182.916 116.523 185.33 117.94C186.695 118.727 188.505 120.065 189.424 120.984C190.342 121.876 191.025 122.427 190.946 122.165Z" fill="#6AB134"/>
<path d="M169.427 121.115C169.349 120.643 169.218 119.934 169.113 119.514C168.85 118.123 167.905 117.546 165.701 117.441C164.599 117.362 163.759 117.441 163.759 117.572C163.759 117.861 165.596 119.199 166.83 119.855C167.302 120.092 168.115 120.669 168.64 121.115L169.611 121.955L169.427 121.115Z" fill="#6AB134"/>
<path d="M77.2924 120.406C78.0271 119.671 79.7591 118.385 81.2024 117.519C82.6195 116.706 84.3252 115.473 85.0075 114.843L86.2146 113.662L85.5586 113.4C85.1912 113.268 83.8266 113.19 82.5407 113.242C79.9428 113.347 78.342 114.003 77.3711 115.289C76.9775 115.84 75.6654 121.534 75.9278 121.718C75.954 121.744 76.5576 121.167 77.2924 120.406Z" fill="#6AB134"/>
<path d="M129.12 121.036C131.587 120.511 132.663 120.065 134.027 119.042C135.287 118.071 135.523 117.546 134.736 117.467C131.167 117.126 129.461 117.494 127.992 118.911C126.916 119.908 126.076 121.666 126.68 121.561C126.811 121.535 127.887 121.299 129.12 121.036Z" fill="#6AB134"/>
<path d="M48.9511 119.33C51.0242 117.861 54.8031 115.709 56.9549 114.764C59.1855 113.767 59.8678 113.295 58.6606 113.557C56.7187 114.03 48.5313 118.648 47.5341 119.829C46.983 120.538 47.5341 120.328 48.9511 119.33Z" fill="#6AB134"/>
<path d="M152.607 118.517L153.919 118.123L152.58 117.625C150.717 116.916 149.431 115.735 146.86 112.298C144.524 109.201 141.559 106.21 140.089 105.501C139.617 105.265 139.171 105.134 139.118 105.212C139.04 105.265 139.538 105.895 140.194 106.577C141.743 108.151 142.372 109.385 143.16 112.376C143.947 115.289 144.262 115.919 145.574 117.179C147.411 118.963 149.746 119.409 152.607 118.517Z" fill="#6AB134"/>
<path d="M209.288 114.318C211.02 113.872 215.639 112.298 217.502 111.537L219.706 110.644L217.817 109.673C215.114 108.256 212.464 107.39 210.154 107.233C208.449 107.102 207.819 107.18 205.956 107.784C203.883 108.44 201.022 110.093 200.812 110.749C200.681 111.222 202.623 113.032 204.014 113.715C205.273 114.318 208.108 114.659 209.288 114.318Z" fill="#6AB134"/>
<path d="M60.2874 112.665C60.8909 112.534 61.7569 112.245 62.2555 112.009C63.3052 111.458 65.3521 109.542 65.3521 109.07C65.3521 108.519 62.3605 106.734 60.4186 106.078C58.2667 105.37 55.695 105.317 53.2808 105.973C51.1552 106.525 46.5629 108.703 46.8778 108.991C47.5601 109.647 56.0624 112.508 58.0043 112.744C58.6604 112.823 59.6838 112.77 60.2874 112.665Z" fill="#6AB134"/>
<path d="M168.692 110.749C169.007 110.408 169.427 109.463 169.585 108.676C169.847 107.364 169.821 107.023 169.296 105.448C168.771 103.821 167.485 101.25 167.275 101.433C167.249 101.486 167.328 102.43 167.485 103.533C167.748 105.343 167.721 105.737 167.17 107.626C166.724 109.201 166.619 109.857 166.829 110.46C167.144 111.431 167.931 111.563 168.692 110.749Z" fill="#6AB134"/>
<path d="M166.147 110.618C165.911 109.804 166.173 107.758 166.645 106.918C166.987 106.236 166.96 104.267 166.541 102.168C166.278 100.856 166.147 100.594 165.989 100.987C165.884 101.276 165.36 102.404 164.861 103.48C163.706 105.973 163.628 107.81 164.572 109.516C164.914 110.146 165.465 110.802 165.779 111.012C166.357 111.379 166.357 111.379 166.147 110.618Z" fill="#6AB134"/>
<path d="M100.648 110.382C102.275 109.962 102.878 108.939 103.246 105.973L103.429 104.661L102.8 105.344C102.485 105.711 101.383 106.629 100.385 107.39C98.1285 109.096 97.2626 110.067 97.7087 110.356C98.0498 110.566 99.808 110.592 100.648 110.382Z" fill="#6AB134"/>
<path d="M201.994 108.833C205.379 106.524 209.787 105.868 213.593 107.102L215.246 107.653L214.511 106.865C214.091 106.419 212.858 105.632 211.808 105.107C209.919 104.162 209.735 104.136 207.085 104.136C204.618 104.136 204.119 104.215 202.597 104.897C200.026 105.999 199.632 106.472 199.763 108.151C199.842 108.912 199.999 109.621 200.13 109.752C200.262 109.857 201.101 109.437 201.994 108.833Z" fill="#6AB134"/>
<path d="M97.3675 109.017C97.3675 108.886 98.286 108.099 99.3882 107.259C100.517 106.419 101.724 105.422 102.065 105.055C102.773 104.32 104.19 101.486 104.19 100.803C104.19 100.41 104.112 100.41 103.456 100.751C103.062 100.935 102.59 101.118 102.406 101.118C101.724 101.118 99.5719 102.404 98.6272 103.401C98.1023 103.952 97.4725 104.845 97.2363 105.37C96.7902 106.445 96.6853 109.253 97.1051 109.253C97.2363 109.253 97.3675 109.148 97.3675 109.017Z" fill="#6AB134"/>
<path d="M66.3233 107.495C66.6382 106.236 66.5332 105.107 66.0346 104.582C65.2999 103.769 62.5182 102.64 60.4714 102.352C58.9493 102.116 58.2933 102.142 56.8237 102.509C55.0131 102.955 52.9662 104.005 51.5754 105.212C50.8144 105.868 50.8144 105.868 51.4442 105.684C56.1152 104.32 59.2642 104.477 62.8594 106.314C63.5679 106.655 64.5388 107.233 64.985 107.574C66.0084 108.361 66.0871 108.361 66.3233 107.495Z" fill="#6AB134"/>
<path d="M191.313 107.259C192.468 106.76 194.095 105.212 194.725 103.979C194.987 103.454 195.46 102.063 195.774 100.856C196.457 98.1793 197.06 96.9459 198.477 95.3976C199.842 93.9543 199.37 94.138 195.643 96.6835C191.969 99.1765 190.185 100.856 188.952 102.955C187.902 104.74 186.773 105.921 185.803 106.236C184.937 106.524 185.199 106.839 186.642 107.285C188.348 107.784 190.132 107.784 191.313 107.259Z" fill="#6AB134"/>
<path d="M80.1001 106.761C81.3072 106.367 81.9895 105.842 81.281 105.842C80.625 105.842 78.7093 103.953 77.8696 102.457C77.4234 101.643 76.4787 100.436 75.7702 99.7277C74.5368 98.5206 70.5218 95.5552 68.37 94.2694L67.3203 93.6396L68.4225 94.9517C69.7083 96.4999 70.3382 97.8383 71.1254 100.804C71.8602 103.48 72.9361 105.186 74.6156 106.209C76.1376 107.154 78.2107 107.364 80.1001 106.761Z" fill="#6AB134"/>
<path d="M185.96 105.265C186.852 104.661 187.56 103.848 188.348 102.562C189.581 100.462 191.549 98.573 194.646 96.4736C195.853 95.6601 196.798 94.9778 196.745 94.9253C196.719 94.8991 194.882 95.3977 192.651 96.0275C187.744 97.4183 186.222 98.2318 185.146 99.9375C184.438 101.066 184.359 101.486 184.28 103.664C184.202 105.16 184.28 106.104 184.438 106.104C184.569 106.104 185.277 105.711 185.96 105.265Z" fill="#6AB134"/>
<path d="M82.5143 104.74C82.9604 102.536 82.4093 100.095 81.1497 98.7043C79.8901 97.3135 78.473 96.6312 74.4055 95.5291C72.5161 95.0305 70.7579 94.5319 70.4693 94.4269C70.0494 94.2957 70.0756 94.3744 70.6005 94.7418C76.0588 98.7043 77.1609 99.7015 78.3943 101.853C79.3128 103.48 80.2312 104.478 81.3859 105.081L82.3568 105.553L82.5143 104.74Z" fill="#6AB134"/>
<path d="M113.515 107.627H151.659V136.564L113.515 134.371V107.627Z" fill="#F5F5F5"/>
<path d="M117.838 108.831C117.412 108.928 117.248 109.314 117.248 110.217C117.248 111.474 117.248 111.474 115.87 111.571L114.46 111.668L114.362 123.37L114.296 135.039L132.894 134.975L151.524 134.878V123.273V111.668L150.146 111.571C148.769 111.474 148.736 111.442 148.736 110.346C148.736 108.799 147.785 108.476 143.98 108.734C140.733 108.928 136.994 109.862 134.501 111.087L132.894 111.893L131.516 111.216C127.449 109.218 120.823 108.057 117.838 108.831ZM126.924 110.894C128.203 111.281 129.909 111.926 130.794 112.345L132.336 113.118V123.305C132.336 132.88 132.303 133.492 131.778 133.266C126.99 131.364 122.824 130.397 120.2 130.591L118.56 130.688V120.243V109.798L121.61 109.991C123.25 110.088 125.678 110.507 126.924 110.894ZM147.358 120.372L147.424 130.688L144.406 130.72C141.75 130.752 140.864 130.913 137.518 132.041L133.648 133.331V123.08V112.861L136.042 111.893C139.814 110.378 141.914 109.959 145.128 110.024L147.26 110.056L147.358 120.372ZM117.314 122.532C117.412 131.042 117.478 132.267 117.904 132.17C119.642 131.719 122.266 131.816 124.792 132.396C129.909 133.621 129.745 133.718 122.43 133.718L115.608 133.75V123.273V112.796H116.428H117.248L117.314 122.532ZM150.376 123.273V133.75L143.586 133.718L136.764 133.686L139.224 132.88C142.045 131.977 145.62 131.59 146.965 132.041C148.769 132.654 148.736 132.847 148.736 122.435V112.796H149.556H150.376V123.273Z" fill="black"/>
<path d="M121.512 115.053C121.512 115.214 122.135 115.375 122.922 115.375C123.677 115.375 125.35 115.73 126.596 116.149C128.925 116.955 129.286 116.987 128.925 116.374C128.302 115.407 121.512 114.214 121.512 115.053Z" fill="black"/>
<path d="M121.512 117.922C121.512 118.083 122.299 118.276 123.25 118.405C124.169 118.534 125.874 118.921 127.022 119.276C129.286 120.017 130.04 119.92 128.433 119.114C126.465 118.115 121.512 117.245 121.512 117.922Z" fill="black"/>
<path d="M121.643 120.887C121.414 121.242 121.873 121.403 124.103 121.661C125.054 121.758 126.596 122.145 127.514 122.467C129.187 123.08 129.614 123.112 129.253 122.532C128.761 121.726 122.037 120.275 121.643 120.887Z" fill="black"/>
<path d="M121.512 124.047C121.512 124.24 122.004 124.401 122.594 124.401C123.185 124.401 124.694 124.691 125.94 125.046C127.219 125.433 128.531 125.82 128.892 125.916C129.482 126.078 129.482 126.045 129.056 125.594C127.974 124.498 121.512 123.176 121.512 124.047Z" fill="black"/>
<path d="M139.88 115.182C137.682 115.794 136.6 116.278 136.6 116.664C136.6 117.084 136.37 117.116 139.06 116.181C140.339 115.762 141.979 115.375 142.734 115.375C143.488 115.375 144.21 115.214 144.308 115.053C144.603 114.601 141.684 114.698 139.88 115.182Z" fill="black"/>
<path d="M140.7 117.986C138.699 118.438 136.6 119.308 136.6 119.663C136.6 119.824 136.928 119.856 137.354 119.727C139.847 118.921 142.504 118.309 143.422 118.309C144.046 118.276 144.439 118.147 144.308 117.954C144.078 117.567 142.504 117.599 140.7 117.986Z" fill="black"/>
<path d="M141.782 120.855C139.749 121.21 136.994 122.113 136.731 122.499C136.338 123.144 136.83 123.112 138.338 122.467C139.191 122.113 140.831 121.726 142.012 121.597C143.488 121.468 144.144 121.274 144.144 120.984C144.144 120.501 144.046 120.501 141.782 120.855Z" fill="black"/>
<path d="M140.634 124.111C138.863 124.434 135.977 125.723 136.502 125.916C136.731 125.981 137.748 125.755 138.732 125.401C139.716 125.014 141.356 124.627 142.34 124.53C143.324 124.401 144.144 124.176 144.144 124.047C144.144 123.692 142.537 123.724 140.634 124.111Z" fill="black"/>
<defs>
<linearGradient id="paint0_linear_101_2" x1="90.237" y1="88.246" x2="241.33" y2="176.525" gradientUnits="userSpaceOnUse">
<stop stop-color="#706D5D"/>
<stop offset="0.401152" stop-color="#55912D"/>
<stop offset="1" stop-color="#BA6E44" stop-opacity="0"/>
</linearGradient>
</defs>
</svg>
